<svg width="1200" height="64" viewBox="0 0 1200 64" fill="none" xmlns="http://www.w3.org/2000/svg" role="img" aria-labelledby="title desc">
  <title id="title">M41G GitHub stats</title>
  <desc id="desc">Stars 0, commits 26, pull requests 3, issues 0, contributions 2</desc>
  <defs>
    <linearGradient id="edge" x1="0" y1="0" x2="1200" y2="64" gradientUnits="userSpaceOnUse">
      <stop stop-color="#172033"/>
      <stop offset="0.5" stop-color="#262038"/>
      <stop offset="1" stop-color="#16303a"/>
    </linearGradient>
  </defs>

  <rect x="1" y="1" width="1198" height="62" rx="10" fill="#0c0d12" stroke="url(#edge)" stroke-width="2"/>

  <g font-family="Consolas, 'SFMono-Regular', 'Liberation Mono', monospace">
    <g transform="translate(58 15)">
      <path d="M12 2.5l3 6.1 6.7 1-4.8 4.7 1.1 6.7-6-3.2-6 3.2 1.1-6.7-4.8-4.7 6.7-1 3-6.1z" stroke="#4ea8c0" stroke-width="2" stroke-linejoin="round"/>
      <text x="36" y="13" fill="#8a8aa0" font-size="12" font-weight="700">STARS</text>
      <text x="36" y="33" fill="#f0f2f7" font-size="19" font-weight="700">0</text>
    </g>

    <g transform="translate(275 15)">
      <line x1="5" y1="12" x2="19" y2="12" stroke="#4ea8c0" stroke-width="2" stroke-linecap="round"/>
      <circle cx="12" cy="12" r="4" fill="#4ea8c0"/>
      <text x="36" y="13" fill="#8a8aa0" font-size="12" font-weight="700">COMMITS</text>
      <text x="36" y="33" fill="#f0f2f7" font-size="19" font-weight="700">26</text>
    </g>

    <g transform="translate(503 15)">
      <circle cx="7" cy="6" r="3" stroke="#4ea8c0" stroke-width="2"/>
      <circle cx="17" cy="18" r="3" stroke="#4ea8c0" stroke-width="2"/>
      <path d="M7 9v12M7 13h6c2.2 0 4 1.8 4 4" stroke="#4ea8c0" stroke-width="2" stroke-linecap="round"/>
      <text x="36" y="13" fill="#8a8aa0" font-size="12" font-weight="700">PRS</text>
      <text x="36" y="33" fill="#f0f2f7" font-size="19" font-weight="700">3</text>
    </g>

    <g transform="translate(707 15)">
      <circle cx="12" cy="12" r="8" stroke="#4ea8c0" stroke-width="2"/>
      <circle cx="12" cy="12" r="2" fill="#4ea8c0"/>
      <text x="36" y="13" fill="#8a8aa0" font-size="12" font-weight="700">ISSUES</text>
      <text x="36" y="33" fill="#f0f2f7" font-size="19" font-weight="700">0</text>
    </g>

    <g transform="translate(923 15)">
      <rect x="5" y="4" width="14" height="16" rx="1" stroke="#4ea8c0" stroke-width="2"/>
      <path d="M8 23h8" stroke="#4ea8c0" stroke-width="2" stroke-linecap="round"/>
      <text x="36" y="13" fill="#8a8aa0" font-size="12" font-weight="700">CONTRIBUTED</text>
      <text x="36" y="33" fill="#f0f2f7" font-size="19" font-weight="700">2</text>
    </g>
  </g>
</svg>
